<?xml version="1.0" encoding="UTF-8" standalone="no"?>
<svg
   xmlns:dc="http://purl.org/dc/elements/1.1/"
   xmlns:cc="http://creativecommons.org/ns#"
   xmlns:rdf="http://www.w3.org/1999/02/22-rdf-syntax-ns#"
   xmlns:svg="http://www.w3.org/2000/svg"
   xmlns="http://www.w3.org/2000/svg"
   viewBox="0 0 120 120"
   height="120"
   width="120"
   id="svg10"
   version="1.1">
  <g id="g712">
    <path
       id="path200"
       d="M 0,0 H 1 V 1 H 0"
       style="fill:#ffffff;fill-opacity:1" />
    <path
       id="path202"
       d="M 1,0 H 2 V 1 H 1"
       style="fill:#ffffff;fill-opacity:1" />
    <path
       id="path204"
       d="M 2,0 H 3 V 1 H 2"
       style="fill:#ffffff;fill-opacity:1" />
    <path
       id="path206"
       d="M 3,0 H 4 V 1 H 3"
       style="fill:#ffffff;fill-opacity:1" />
    <path
       id="path208"
       d="M 4,0 H 5 V 1 H 4"
       style="fill:#ffffff;fill-opacity:1" />
    <path
       id="path210"
       d="M 5,0 H 6 V 1 H 5"
       style="fill:#ffffff;fill-opacity:1" />
    <path
       id="path212"
       d="M 6,0 H 7 V 1 H 6"
       style="fill:#ffffff;fill-opacity:1" />
    <path
       id="path214"
       d="M 7,0 H 8 V 1 H 7"
       style="fill:#ffffff;fill-opacity:1" />
    <path
       id="path216"
       d="M 8,0 H 9 V 1 H 8"
       style="fill:#ffffff;fill-opacity:1" />
    <path
       id="path218"
       d="m 9,0 h 1 V 1 H 9"
       style="fill:#ffffff;fill-opacity:1" />
    <path
       id="path220"
       d="m 10,0 h 1 v 1 h -1"
       style="fill:#ffffff;fill-opacity:1" />
    <path
       id="path222"
       d="m 11,0 h 1 v 1 h -1"
       style="fill:#ffffff;fill-opacity:1" />
    <path
       id="path224"
       d="m 12,0 h 1 v 1 h -1"
       style="fill:#ffffff;fill-opacity:1" />
    <path
       id="path226"
       d="m 13,0 h 1 v 1 h -1"
       style="fill:#ffffff;fill-opacity:1" />
    <path
       id="path228"
       d="m 14,0 h 1 v 1 h -1"
       style="fill:#ffffff;fill-opacity:1" />
    <path
       id="path230"
       d="m 15,0 h 1 v 1 h -1"
       style="fill:#ffffff;fill-opacity:1" />
    <path
       id="path232"
       d="M 0,1 H 1 V 2 H 0"
       style="fill:#ffffff;fill-opacity:1" />
    <path
       id="path234"
       d="M 1,1 H 2 V 2 H 1"
       style="fill:#ffffff;fill-opacity:1" />
    <path
       id="path236"
       d="M 2,1 H 3 V 2 H 2"
       style="fill:#ffffff;fill-opacity:1" />
    <path
       id="path238"
       d="M 3,1 H 4 L 3.75,1.75 3,2"
       style="fill:#ffffff;fill-opacity:1" />
    <path
       id="path240"
       d="M 4,1 H 5 V 2 L 4.25,2.25 3.75,1.75"
       style="fill:#ffffff;fill-opacity:1" />
    <path
       id="path242"
       d="M 5,1 H 6 V 2 H 5"
       style="fill:#ffffff;fill-opacity:1" />
    <path
       id="path244"
       d="M 6,1 H 7 L 7.25,1.75 6.75,2.25 6,2"
       style="fill:#ffffff;fill-opacity:1" />
    <path
       id="path246"
       d="M 7,1 H 8 V 2 L 7.25,1.75"
       style="fill:#ffffff;fill-opacity:1" />
    <path
       id="path248"
       d="M 8,1 H 9 V 2 H 8"
       style="fill:#ffffff;fill-opacity:1" />
    <path
       id="path250"
       d="m 9,1 h 1 V 2 H 9"
       style="fill:#ffffff;fill-opacity:1" />
    <path
       id="path252"
       d="m 10,1 h 1 v 1 h -1"
       style="fill:#ffffff;fill-opacity:1" />
    <path
       id="path254"
       d="m 11,1 h 1 v 1 h -1"
       style="fill:#ffffff;fill-opacity:1" />
    <path
       id="path256"
       d="m 12,1 h 1 v 1 h -1"
       style="fill:#ffffff;fill-opacity:1" />
    <path
       id="path258"
       d="m 13,1 h 1 v 1 h -1"
       style="fill:#ffffff;fill-opacity:1" />
    <path
       id="path260"
       d="m 14,1 h 1 v 1 h -1"
       style="fill:#ffffff;fill-opacity:1" />
    <path
       id="path262"
       d="m 15,1 h 1 v 1 h -1"
       style="fill:#ffffff;fill-opacity:1" />
    <path
       id="path264"
       d="M 0,2 H 1 V 3 H 0"
       style="fill:#ffffff;fill-opacity:1" />
    <path
       id="path266"
       d="M 1,2 H 2 L 1.75,2.75 1,3"
       style="fill:#ffffff;fill-opacity:1" />
    <path
       id="path268"
       d="M 2,2 H 3 V 3 L 2.25,3.25 1.75,2.75"
       style="fill:#ffffff;fill-opacity:1" />
    <path
       id="path270"
       d="M 3,2 3.75,1.75 4.25,2.25 3.75,2.75 3,3"
       style="fill:#ffffff;fill-opacity:1" />
    <path
       id="path272"
       d="M 4.25,2.25 5,2 V 3 L 4.25,3.25 3.75,2.75"
       style="fill:#84909c;fill-opacity:1" />
    <path
       id="path274"
       d="M 5,2 H 6 V 3 H 5"
       style="fill:#838f9b;fill-opacity:1" />
    <path
       id="path276"
       d="m 6,2 0.75,0.25 0.5,0.5 -0.5,0.5 L 6,3"
       style="fill:#84909c;fill-opacity:1" />
    <path
       id="path278"
       d="M 6.75,2.25 7.25,1.75 8,2 V 3 L 7.25,2.75"
       style="fill:#ffffff;fill-opacity:1" />
    <path
       id="path280"
       d="M 8,2 H 9 V 3 H 8"
       style="fill:#ffffff;fill-opacity:1" />
    <path
       id="path282"
       d="m 9,2 h 1 V 3 H 9"
       style="fill:#ffffff;fill-opacity:1" />
    <path
       id="path284"
       d="m 10,2 h 1 v 1 h -1"
       style="fill:#ffffff;fill-opacity:1" />
    <path
       id="path286"
       d="m 11,2 h 1 v 1 h -1"
       style="fill:#ffffff;fill-opacity:1" />
    <path
       id="path288"
       d="m 12,2 h 1 v 1 h -1"
       style="fill:#ffffff;fill-opacity:1" />
    <path
       id="path290"
       d="m 13,2 h 1 v 1 h -1"
       style="fill:#ffffff;fill-opacity:1" />
    <path
       id="path292"
       d="m 14,2 h 1 l 0.25,0.75 -0.5,0.5 L 14,3"
       style="fill:#ffffff;fill-opacity:1" />
    <path
       id="path294"
       d="m 15,2 h 1 V 3 L 15.25,2.75"
       style="fill:#ffffff;fill-opacity:1" />
    <path
       id="path296"
       d="M 0,3 H 1 L 0.75,3.75 0,4"
       style="fill:#ffffff;fill-opacity:1" />
    <path
       id="path298"
       d="m 1,3 0.75,-0.25 0.5,0.5 -0.5,0.5 -0.5,0.5 -0.5,-0.5"
       style="fill:#ffffff;fill-opacity:1" />
    <path
       id="path300"
       d="M 2.25,3.25 3,3 V 4 L 2.25,4.25 1.75,3.75"
       style="fill:#85919e;fill-opacity:1" />
    <path
       id="path302"
       d="M 3,3 3.75,2.75 4.25,3.25 3.75,3.75 3,4"
       style="fill:#818e9b;fill-opacity:1" />
    <path
       id="path304"
       d="M 4.25,3.25 5,3 V 4 L 4.25,4.25 3.75,3.75"
       style="fill:#bac4ce;fill-opacity:1" />
    <path
       id="path306"
       d="M 5,3 H 6 V 4 H 5"
       style="fill:#b8c2cc;fill-opacity:1" />
    <path
       id="path308"
       d="m 6,3 0.75,0.25 0.5,0.5 -0.5,0.5 L 6,4"
       style="fill:#bbc5cf;fill-opacity:1" />
    <path
       id="path310"
       d="M 6.75,3.25 7.25,2.75 8,3 V 4 L 7.25,3.75"
       style="fill:#85919d;fill-opacity:1" />
    <path
       id="path312"
       d="M 8,3 H 9 V 4 H 8"
       style="fill:#8894a0;fill-opacity:1" />
    <path
       id="path314"
       d="m 9,3 h 1 V 4 H 9"
       style="fill:#8894a0;fill-opacity:1" />
    <path
       id="path316"
       d="m 10,3 h 1 v 1 h -1"
       style="fill:#87939f;fill-opacity:1" />
    <path
       id="path318"
       d="m 11,3 h 1 v 1 h -1"
       style="fill:#85919e;fill-opacity:1" />
    <path
       id="path320"
       d="m 12,3 h 1 v 1 h -1"
       style="fill:#84919e;fill-opacity:1" />
    <path
       id="path322"
       d="m 13,3 h 1 v 1 h -1"
       style="fill:#84919e;fill-opacity:1" />
    <path
       id="path324"
       d="m 14,3 0.75,0.25 0.5,0.5 -0.5,0.5 L 14,4"
       style="fill:#86929f;fill-opacity:1" />
    <path
       id="path326"
       d="M 14.75,3.25 15.25,2.75 16,3 V 4 L 15.25,3.75"
       style="fill:#ffffff;fill-opacity:1" />
    <path
       id="path328"
       d="M 0,4 0.75,3.75 1.25,4.25 1,5 H 0"
       style="fill:#ffffff;fill-opacity:1" />
    <path
       id="path330"
       d="m 1.25,4.25 0.5,-0.5 0.5,0.5 L 2,5 H 1"
       style="fill:#8c98a5;fill-opacity:1" />
    <path
       id="path332"
       d="M 2.25,4.25 3,4 V 5 H 2"
       style="fill:#e6ebf2;fill-opacity:1" />
    <path
       id="path334"
       d="m 3,4 0.75,-0.25 0.5,0.5 v 0.5 L 3.75,5.25 3,5"
       style="fill:#e6ebf2;fill-opacity:1" />
    <path
       id="path336"
       d="M 4.25,4.25 5,4 V 5 L 4.25,4.75"
       style="fill:#e6ebf2;fill-opacity:1" />
    <path
       id="path338"
       d="M 5,4 H 6 L 5.75,4.75 5,5"
       style="fill:#e6ebf2;fill-opacity:1" />
    <path
       id="path340"
       d="m 6,4 0.75,0.25 0.5,0.5 -0.5,0.5 h -0.5 l -0.5,-0.5"
       style="fill:#e6ebf2;fill-opacity:1" />
    <path
       id="path342"
       d="M 6.75,4.25 7.25,3.75 8,4 V 5 L 7.25,4.75"
       style="fill:#e6ebf2;fill-opacity:1" />
    <path
       id="path344"
       d="M 8,4 H 9 V 5 H 8"
       style="fill:#e6ebf2;fill-opacity:1" />
    <path
       id="path346"
       d="m 9,4 h 1 V 5 H 9"
       style="fill:#e6ebf2;fill-opacity:1" />
    <path
       id="path348"
       d="m 10,4 h 1 L 10.75,4.75 10,5"
       style="fill:#e6ebf2;fill-opacity:1" />
    <path
       id="path350"
       d="m 11,4 h 1 v 1 l -0.75,0.25 -0.5,-0.5"
       style="fill:#e6ebf2;fill-opacity:1" />
    <path
       id="path352"
       d="m 12,4 h 1 v 1 h -1"
       style="fill:#e6ebf2;fill-opacity:1" />
    <path
       id="path354"
       d="m 13,4 h 1 v 1 h -1"
       style="fill:#e6ebf2;fill-opacity:1" />
    <path
       id="path356"
       d="m 14,4 0.75,0.25 v 0.5 L 14,5"
       style="fill:#e6ebf2;fill-opacity:1" />
    <path
       id="path358"
       d="M 14.75,4.25 15.25,3.75 16,4 v 1 l -0.75,0.25 -0.5,-0.5"
       style="fill:#7f8c98;fill-opacity:1" />
    <path
       id="path360"
       d="M 0,5 H 1 V 6 H 0"
       style="fill:#ffffff;fill-opacity:1" />
    <path
       id="path362"
       d="M 1,5 H 2 V 6 H 1"
       style="fill:#26313b;fill-opacity:1" />
    <path
       id="path364"
       d="M 2,5 H 3 L 3.25,5.75 2.75,6.25 2,6"
       style="fill:#202c36;fill-opacity:1" />
    <path
       id="path366"
       d="M 3,5 3.75,5.25 4,6 3.25,5.75"
       style="fill:#57636e;fill-opacity:1" />
    <path
       id="path368"
       d="M 3.75,5.25 4.25,4.75 5,5 4.75,5.75 4,6"
       style="fill:#e9f0f7;fill-opacity:1" />
    <path
       id="path370"
       d="m 5,5 0.75,-0.25 0.5,0.5 -0.5,0.5 -0.5,0.5 -0.5,-0.5"
       style="fill:#bdc7cf;fill-opacity:1" />
    <path
       id="path372"
       d="m 6.25,5.25 h 0.5 l 0.5,0.5 -0.5,0.5 h -0.5 l -0.5,-0.5"
       style="fill:#a7b1bb;fill-opacity:1" />
    <path
       id="path374"
       d="M 6.75,5.25 7.25,4.75 8,5 V 6 L 7.25,5.75"
       style="fill:#e6e9eb;fill-opacity:1" />
    <path
       id="path376"
       d="M 8,5 H 9 V 6 H 8"
       style="fill:#ffffff;fill-opacity:1" />
    <path
       id="path378"
       d="m 9,5 h 1 V 6 H 9"
       style="fill:#ffffff;fill-opacity:1" />
    <path
       id="path380"
       d="m 10,5 0.75,-0.25 0.5,0.5 -0.5,0.5 L 10,6"
       style="fill:#e5e9eb;fill-opacity:1" />
    <path
       id="path382"
       d="M 11.25,5.25 12,5 l 0.25,0.75 -0.5,0.5 h -0.5 l -0.5,-0.5"
       style="fill:#adb6bf;fill-opacity:1" />
    <path
       id="path384"
       d="m 12,5 h 1 V 6 L 12.25,5.75"
       style="fill:#a2abb5;fill-opacity:1" />
    <path
       id="path386"
       d="m 13,5 h 1 L 13.75,5.75 13,6"
       style="fill:#a2abb4;fill-opacity:1" />
    <path
       id="path388"
       d="m 14,5 0.75,-0.25 0.5,0.5 v 0.5 l -0.5,0.5 h -0.5 l -0.5,-0.5"
       style="fill:#a4adb7;fill-opacity:1" />
    <path
       id="path390"
       d="M 15.25,5.25 16,5 V 6 L 15.25,5.75"
       style="fill:#7f8c98;fill-opacity:1" />
    <path
       id="path392"
       d="M 0,6 H 1 V 7 H 0"
       style="fill:#5f6872;fill-opacity:1" />
    <path
       id="path394"
       d="M 1,6 H 2 L 2.25,6.75 1.75,7.25 1,7"
       style="fill:#b0b7cc;fill-opacity:1" />
    <path
       id="path396"
       d="M 2,6 2.75,6.25 3,7 2.25,6.75"
       style="fill:#7879a9;fill-opacity:1" />
    <path
       id="path398"
       d="M 2.75,6.25 3.25,5.75 4,6 V 7 H 3"
       style="fill:#202c36;fill-opacity:1" />
    <path
       id="path400"
       d="m 4,6 0.75,-0.25 0.5,0.5 v 0.5 L 4.75,7.25 4,7"
       style="fill:#cad1da;fill-opacity:1" />
    <path
       id="path402"
       d="m 5.25,6.25 0.5,-0.5 0.5,0.5 -0.5,0.5 h -0.5"
       style="fill:#a2abb5;fill-opacity:1" />
    <path
       id="path404"
       d="m 6.25,6.25 h 0.5 v 0.5 l -0.5,0.5 -0.5,-0.5"
       style="fill:#fefefe;fill-opacity:1" />
    <path
       id="path406"
       d="M 6.75,6.25 7.25,5.75 8,6 V 7 L 7.25,7.25 6.75,6.75"
       style="fill:#9da2a7;fill-opacity:1" />
    <path
       id="path408"
       d="M 8,6 H 9 V 7 H 8"
       style="fill:#3b4047;fill-opacity:1" />
    <path
       id="path410"
       d="m 9,6 h 1 V 7 H 9"
       style="fill:#3b4047;fill-opacity:1" />
    <path
       id="path412"
       d="m 10,6 0.75,-0.25 0.5,0.5 v 0.5 L 10.75,7.25 10,7"
       style="fill:#a0a5aa;fill-opacity:1" />
    <path
       id="path414"
       d="m 11.25,6.25 h 0.5 l 0.5,0.5 -0.5,0.5 -0.5,-0.5"
       style="fill:#feffff;fill-opacity:1" />
    <path
       id="path416"
       d="M 11.75,6.25 12.25,5.75 13,6 l 0.25,0.75 -0.5,0.5 -0.5,-0.5"
       style="fill:#a3acb5;fill-opacity:1" />
    <path
       id="path418"
       d="m 13,6 0.75,-0.25 0.5,0.5 v 0.5 l -0.5,0.5 -0.5,-0.5"
       style="fill:#c9d1da;fill-opacity:1" />
    <path
       id="path420"
       d="m 14.25,6.25 h 0.5 L 15,7 14.25,6.75"
       style="fill:#ffffff;fill-opacity:1" />
    <path
       id="path422"
       d="M 14.75,6.25 15.25,5.75 16,6 v 1 h -1"
       style="fill:#7f8c98;fill-opacity:1" />
    <path
       id="path424"
       d="M 0,7 H 1 V 8 H 0"
       style="fill:#5f6872;fill-opacity:1" />
    <path
       id="path426"
       d="m 1,7 0.75,0.25 v 0.5 L 1,8"
       style="fill:#99a3b3;fill-opacity:1" />
    <path
       id="path428"
       d="M 1.75,7.25 2.25,6.75 3,7 V 8 L 2.25,8.25 1.75,7.75"
       style="fill:#8a97a1;fill-opacity:1" />
    <path
       id="path430"
       d="M 3,7 H 4 L 4.25,7.75 3.75,8.25 3,8"
       style="fill:#7d8a94;fill-opacity:1" />
    <path
       id="path432"
       d="M 4,7 4.75,7.25 5,8 4.25,7.75"
       style="fill:#97a0aa;fill-opacity:1" />
    <path
       id="path434"
       d="m 4.75,7.25 0.5,-0.5 h 0.5 L 6.25,7.25 6,8 H 5"
       style="fill:#e1e4e8;fill-opacity:1" />
    <path
       id="path436"
       d="m 6.25,7.25 0.5,-0.5 0.5,0.5 L 7,8 H 6"
       style="fill:#6d767f;fill-opacity:1" />
    <path
       id="path438"
       d="M 7.25,7.25 8,7 V 8 H 7"
       style="fill:#68839e;fill-opacity:1" />
    <path
       id="path440"
       d="M 8,7 H 9 V 8 H 8"
       style="fill:#1488e6;fill-opacity:1" />
    <path
       id="path442"
       d="m 9,7 h 1 V 8 H 9"
       style="fill:#1a87e5;fill-opacity:1" />
    <path
       id="path444"
       d="M 10,7 10.75,7.25 11,8 h -1"
       style="fill:#577491;fill-opacity:1" />
    <path
       id="path446"
       d="m 10.75,7.25 0.5,-0.5 0.5,0.5 L 12,8 h -1"
       style="fill:#717881;fill-opacity:1" />
    <path
       id="path448"
       d="m 11.75,7.25 0.5,-0.5 0.5,0.5 L 13,8 h -1"
       style="fill:#e0e3e6;fill-opacity:1" />
    <path
       id="path450"
       d="m 12.75,7.25 0.5,-0.5 0.5,0.5 L 14,8 h -1"
       style="fill:#939ca6;fill-opacity:1" />
    <path
       id="path452"
       d="M 13.75,7.25 14.25,6.75 15,7 v 1 h -1"
       style="fill:#ffffff;fill-opacity:1" />
    <path
       id="path454"
       d="m 15,7 h 1 v 1 h -1"
       style="fill:#7f8c98;fill-opacity:1" />
    <path
       id="path456"
       d="M 0,8 H 1 V 9 H 0"
       style="fill:#5f6872;fill-opacity:1" />
    <path
       id="path458"
       d="m 1,8 0.75,-0.25 0.5,0.5 v 0.5 L 1.75,9.25 1,9"
       style="fill:#aab2c6;fill-opacity:1" />
    <path
       id="path460"
       d="M 2.25,8.25 3,8 V 9 L 2.25,8.75"
       style="fill:#7273a4;fill-opacity:1" />
    <path
       id="path462"
       d="m 3,8 0.75,0.25 v 0.5 L 3,9"
       style="fill:#202c36;fill-opacity:1" />
    <path
       id="path464"
       d="M 3.75,8.25 4.25,7.75 5,8 V 9 L 4.25,9.25 3.75,8.75"
       style="fill:#76828c;fill-opacity:1" />
    <path
       id="path466"
       d="M 5,8 H 6 V 9 H 5"
       style="fill:#dbe0e4;fill-opacity:1" />
    <path
       id="path468"
       d="M 6,8 H 7 V 9 H 6"
       style="fill:#6d747b;fill-opacity:1" />
    <path
       id="path470"
       d="M 7,8 H 8 V 9 H 7"
       style="fill:#83bff7;fill-opacity:1" />
    <path
       id="path472"
       d="M 8,8 H 9 V 9 H 8"
       style="fill:#87cfff;fill-opacity:1" />
    <path
       id="path474"
       d="m 9,8 h 1 V 9 H 9"
       style="fill:#42afff;fill-opacity:1" />
    <path
       id="path476"
       d="m 10,8 h 1 v 1 h -1"
       style="fill:#51a3f2;fill-opacity:1" />
    <path
       id="path478"
       d="m 11,8 h 1 v 1 h -1"
       style="fill:#6c7279;fill-opacity:1" />
    <path
       id="path480"
       d="m 12,8 h 1 v 1 h -1"
       style="fill:#dadfe3;fill-opacity:1" />
    <path
       id="path482"
       d="m 13,8 h 1 v 1 h -1"
       style="fill:#74808a;fill-opacity:1" />
    <path
       id="path484"
       d="m 14,8 h 1 v 1 h -1"
       style="fill:#ffffff;fill-opacity:1" />
    <path
       id="path486"
       d="m 15,8 h 1 v 1 h -1"
       style="fill:#7f8c98;fill-opacity:1" />
    <path
       id="path488"
       d="m 0,9 h 1 v 1 H 0"
       style="fill:#5f6872;fill-opacity:1" />
    <path
       id="path490"
       d="m 1,9 0.75,0.25 v 0.5 L 1,10"
       style="fill:#9aa4b4;fill-opacity:1" />
    <path
       id="path492"
       d="M 1.75,9.25 2.25,8.75 3,9 v 1 l -0.75,0.25 -0.5,-0.5"
       style="fill:#8b98a1;fill-opacity:1" />
    <path
       id="path494"
       d="m 3,9 0.75,-0.25 0.5,0.5 v 0.5 L 3.75,10.25 3,10"
       style="fill:#7a858f;fill-opacity:1" />
    <path
       id="path496"
       d="M 4.25,9.25 5,9 v 1 L 4.25,9.75"
       style="fill:#6a7480;fill-opacity:1" />
    <path
       id="path498"
       d="m 5,9 h 1 v 1 H 5"
       style="fill:#dbe0e4;fill-opacity:1" />
    <path
       id="path500"
       d="m 6,9 h 1 v 1 H 6"
       style="fill:#6d747b;fill-opacity:1" />
    <path
       id="path502"
       d="m 7,9 h 1 v 1 H 7"
       style="fill:#83bff7;fill-opacity:1" />
    <path
       id="path504"
       d="m 8,9 h 1 v 1 H 8"
       style="fill:#87cfff;fill-opacity:1" />
    <path
       id="path506"
       d="m 9,9 h 1 v 1 H 9"
       style="fill:#42afff;fill-opacity:1" />
    <path
       id="path508"
       d="m 10,9 h 1 v 1 h -1"
       style="fill:#51a3f2;fill-opacity:1" />
    <path
       id="path510"
       d="m 11,9 h 1 v 1 h -1"
       style="fill:#6c7279;fill-opacity:1" />
    <path
       id="path512"
       d="m 12,9 h 1 v 1 h -1"
       style="fill:#dadfe3;fill-opacity:1" />
    <path
       id="path514"
       d="m 13,9 h 1 v 1 h -1"
       style="fill:#74808a;fill-opacity:1" />
    <path
       id="path516"
       d="m 14,9 h 1 v 1 h -1"
       style="fill:#ffffff;fill-opacity:1" />
    <path
       id="path518"
       d="m 15,9 h 1 v 1 h -1"
       style="fill:#7f8c98;fill-opacity:1" />
    <path
       id="path520"
       d="m 0,10 h 1 v 1 H 0"
       style="fill:#5f6872;fill-opacity:1" />
    <path
       id="path522"
       d="m 1,10 0.75,-0.25 0.5,0.5 v 0.5 L 1.75,11.25 1,11"
       style="fill:#abb3c7;fill-opacity:1" />
    <path
       id="path524"
       d="M 2.25,10.25 3,10 v 1 L 2.25,10.75"
       style="fill:#7274a4;fill-opacity:1" />
    <path
       id="path526"
       d="m 3,10 0.75,0.25 v 0.5 L 3,11"
       style="fill:#202c36;fill-opacity:1" />
    <path
       id="path528"
       d="M 3.75,10.25 4.25,9.75 5,10 l -0.25,0.75 -0.5,0.5 -0.5,-0.5"
       style="fill:#6e7985;fill-opacity:1" />
    <path
       id="path530"
       d="m 5,10 h 1 l 0.25,0.75 -0.5,0.5 h -0.5 l -0.5,-0.5"
       style="fill:#e1e4e8;fill-opacity:1" />
    <path
       id="path532"
       d="m 6,10 h 1 l 0.25,0.75 -0.5,0.5 -0.5,-0.5"
       style="fill:#6d767f;fill-opacity:1" />
    <path
       id="path534"
       d="m 7,10 h 1 v 1 L 7.25,10.75"
       style="fill:#68839e;fill-opacity:1" />
    <path
       id="path536"
       d="m 8,10 h 1 v 1 H 8"
       style="fill:#1488e6;fill-opacity:1" />
    <path
       id="path538"
       d="m 9,10 h 1 v 1 H 9"
       style="fill:#1a87e5;fill-opacity:1" />
    <path
       id="path540"
       d="m 10,10 h 1 L 10.75,10.75 10,11"
       style="fill:#577491;fill-opacity:1" />
    <path
       id="path542"
       d="m 11,10 h 1 l -0.25,0.75 -0.5,0.5 -0.5,-0.5"
       style="fill:#717881;fill-opacity:1" />
    <path
       id="path544"
       d="m 12,10 h 1 l -0.25,0.75 -0.5,0.5 -0.5,-0.5"
       style="fill:#e0e3e6;fill-opacity:1" />
    <path
       id="path546"
       d="m 13,10 h 1 l -0.25,0.75 -0.5,0.5 -0.5,-0.5"
       style="fill:#939ca6;fill-opacity:1" />
    <path
       id="path548"
       d="m 14,10 h 1 v 1 l -0.75,0.25 -0.5,-0.5"
       style="fill:#ffffff;fill-opacity:1" />
    <path
       id="path550"
       d="m 15,10 h 1 v 1 h -1"
       style="fill:#7f8c98;fill-opacity:1" />
    <path
       id="path552"
       d="m 0,11 h 1 l 0.25,0.75 -0.5,0.5 L 0,12"
       style="fill:#5f6872;fill-opacity:1" />
    <path
       id="path554"
       d="m 1,11 0.75,0.25 v 0.5 h -0.5"
       style="fill:#9ea8b9;fill-opacity:1" />
    <path
       id="path556"
       d="M 1.75,11.25 2.25,10.75 3,11 l -0.25,0.75 -0.5,0.5 -0.5,-0.5"
       style="fill:#8d9ba5;fill-opacity:1" />
    <path
       id="path558"
       d="m 3,11 0.75,-0.25 0.5,0.5 L 4,12 3.25,12.25 2.75,11.75"
       style="fill:#737d88;fill-opacity:1" />
    <path
       id="path560"
       d="m 4.25,11.25 0.5,-0.5 0.5,0.5 v 0.5 L 4.75,12.25 4,12"
       style="fill:#acb7c0;fill-opacity:1" />
    <path
       id="path562"
       d="m 5.25,11.25 h 0.5 l 0.5,0.5 -0.5,0.5 -0.5,-0.5"
       style="fill:#a2abb5;fill-opacity:1" />
    <path
       id="path564"
       d="m 5.75,11.25 0.5,-0.5 0.5,0.5 v 0.5 h -0.5"
       style="fill:#fefefe;fill-opacity:1" />
    <path
       id="path566"
       d="M 6.75,11.25 7.25,10.75 8,11 v 1 l -0.75,0.25 -0.5,-0.5"
       style="fill:#9da2a7;fill-opacity:1" />
    <path
       id="path568"
       d="m 8,11 h 1 v 1 H 8"
       style="fill:#3b4047;fill-opacity:1" />
    <path
       id="path570"
       d="m 9,11 h 1 v 1 H 9"
       style="fill:#3b4047;fill-opacity:1" />
    <path
       id="path572"
       d="m 10,11 0.75,-0.25 0.5,0.5 v 0.5 l -0.5,0.5 L 10,12"
       style="fill:#a0a5aa;fill-opacity:1" />
    <path
       id="path574"
       d="m 11.25,11.25 0.5,-0.5 0.5,0.5 -0.5,0.5 h -0.5"
       style="fill:#feffff;fill-opacity:1" />
    <path
       id="path576"
       d="m 12.25,11.25 0.5,-0.5 0.5,0.5 L 13,12 l -0.75,0.25 -0.5,-0.5"
       style="fill:#a3acb5;fill-opacity:1" />
    <path
       id="path578"
       d="m 13.25,11.25 0.5,-0.5 0.5,0.5 v 0.5 l -0.5,0.5 L 13,12"
       style="fill:#c9d1da;fill-opacity:1" />
    <path
       id="path580"
       d="M 14.25,11.25 15,11 14.75,11.75 h -0.5"
       style="fill:#ffffff;fill-opacity:1" />
    <path
       id="path582"
       d="m 15,11 h 1 v 1 l -0.75,0.25 -0.5,-0.5"
       style="fill:#7f8c98;fill-opacity:1" />
    <path
       id="path584"
       d="M 0,12 0.75,12.25 1,13 H 0"
       style="fill:#ffffff;fill-opacity:1" />
    <path
       id="path586"
       d="m 0.75,12.25 0.5,-0.5 h 0.5 l 0.5,0.5 -0.5,0.5 L 1,13"
       style="fill:#616971;fill-opacity:1" />
    <path
       id="path588"
       d="m 2.25,12.25 0.5,-0.5 0.5,0.5 L 3,13 2.25,13.25 1.75,12.75"
       style="fill:#5c636c;fill-opacity:1" />
    <path
       id="path590"
       d="M 3.25,12.25 4,12 3.75,12.75 3,13"
       style="fill:#202c36;fill-opacity:1" />
    <path
       id="path592"
       d="M 4,12 4.75,12.25 5,13 4.25,13.25 3.75,12.75"
       style="fill:#e2e9f1;fill-opacity:1" />
    <path
       id="path594"
       d="m 4.75,12.25 0.5,-0.5 0.5,0.5 0.5,0.5 -0.5,0.5 L 5,13"
       style="fill:#bdc7cf;fill-opacity:1" />
    <path
       id="path596"
       d="m 5.75,12.25 0.5,-0.5 h 0.5 l 0.5,0.5 -0.5,0.5 h -0.5"
       style="fill:#a7b1bb;fill-opacity:1" />
    <path
       id="path598"
       d="M 7.25,12.25 8,12 v 1 l -0.75,0.25 -0.5,-0.5"
       style="fill:#e6e9eb;fill-opacity:1" />
    <path
       id="path600"
       d="m 8,12 h 1 v 1 H 8"
       style="fill:#ffffff;fill-opacity:1" />
    <path
       id="path602"
       d="m 9,12 h 1 v 1 H 9"
       style="fill:#ffffff;fill-opacity:1" />
    <path
       id="path604"
       d="m 10,12 0.75,0.25 0.5,0.5 -0.5,0.5 L 10,13"
       style="fill:#e5e9eb;fill-opacity:1" />
    <path
       id="path606"
       d="m 10.75,12.25 0.5,-0.5 h 0.5 l 0.5,0.5 -0.5,0.5 h -0.5"
       style="fill:#adb6bf;fill-opacity:1" />
    <path
       id="path608"
       d="M 12.25,12.25 13,12 v 1 l -0.75,0.25 -0.5,-0.5"
       style="fill:#a2abb5;fill-opacity:1" />
    <path
       id="path610"
       d="m 13,12 0.75,0.25 0.5,0.5 -0.5,0.5 L 13,13"
       style="fill:#a2abb4;fill-opacity:1" />
    <path
       id="path612"
       d="m 13.75,12.25 0.5,-0.5 h 0.5 l 0.5,0.5 L 15,13 14.25,12.75"
       style="fill:#a4adb7;fill-opacity:1" />
    <path
       id="path614"
       d="M 15.25,12.25 16,12 v 1 h -1"
       style="fill:#727c86;fill-opacity:1" />
    <path
       id="path616"
       d="m 0,13 h 1 l 0.25,0.75 -0.5,0.5 L 0,14"
       style="fill:#ffffff;fill-opacity:1" />
    <path
       id="path618"
       d="m 1,13 0.75,-0.25 0.5,0.5 v 0.5 l -0.5,0.5 -0.5,-0.5"
       style="fill:#646d76;fill-opacity:1" />
    <path
       id="path620"
       d="M 2.25,13.25 3,13 v 1 L 2.25,13.75"
       style="fill:#c3cfda;fill-opacity:1" />
    <path
       id="path622"
       d="m 3,13 0.75,-0.25 0.5,0.5 L 4,14 H 3"
       style="fill:#cdd7e1;fill-opacity:1" />
    <path
       id="path624"
       d="M 4.25,13.25 5,13 v 1 H 4"
       style="fill:#dae2ea;fill-opacity:1" />
    <path
       id="path626"
       d="M 5,13 5.75,13.25 6,14 H 5"
       style="fill:#eaf2f8;fill-opacity:1" />
    <path
       id="path628"
       d="m 5.75,13.25 0.5,-0.5 h 0.5 l 0.5,0.5 L 7,14 H 6"
       style="fill:#b5bec5;fill-opacity:1" />
    <path
       id="path630"
       d="M 7.25,13.25 8,13 v 1 H 7"
       style="fill:#ffffff;fill-opacity:1" />
    <path
       id="path632"
       d="m 8,13 h 1 v 1 H 8"
       style="fill:#e6ebf2;fill-opacity:1" />
    <path
       id="path634"
       d="m 9,13 h 1 v 1 H 9"
       style="fill:#e6ebf2;fill-opacity:1" />
    <path
       id="path636"
       d="M 10,13 10.75,13.25 11,14 h -1"
       style="fill:#ffffff;fill-opacity:1" />
    <path
       id="path638"
       d="m 10.75,13.25 0.5,-0.5 h 0.5 l 0.5,0.5 L 12,14 h -1"
       style="fill:#b5bec5;fill-opacity:1" />
    <path
       id="path640"
       d="M 12.25,13.25 13,13 v 1 h -1"
       style="fill:#eaf2f8;fill-opacity:1" />
    <path
       id="path642"
       d="M 13,13 13.75,13.25 14,14 h -1"
       style="fill:#dae2ea;fill-opacity:1" />
    <path
       id="path644"
       d="m 13.75,13.25 0.5,-0.5 0.75,0.25 0.25,0.75 -0.5,0.5 L 14,14"
       style="fill:#cdd7e1;fill-opacity:1" />
    <path
       id="path646"
       d="m 15,13 h 1 v 1 l -0.75,-0.25"
       style="fill:#6e7782;fill-opacity:1" />
    <path
       id="path648"
       d="M 0,14 0.75,14.25 1,15 H 0"
       style="fill:#ffffff;fill-opacity:1" />
    <path
       id="path650"
       d="m 0.75,14.25 0.5,-0.5 0.5,0.5 0.5,0.5 -0.5,0.5 L 1,15"
       style="fill:#ffffff;fill-opacity:1" />
    <path
       id="path652"
       d="M 1.75,14.25 2.25,13.75 3,14 v 1 L 2.25,14.75"
       style="fill:#464f59;fill-opacity:1" />
    <path
       id="path654"
       d="m 3,14 h 1 v 1 H 3"
       style="fill:#2a3540;fill-opacity:1" />
    <path
       id="path656"
       d="m 4,14 h 1 v 1 H 4"
       style="fill:#2a3641;fill-opacity:1" />
    <path
       id="path658"
       d="m 5,14 h 1 v 1 H 5"
       style="fill:#2a3641;fill-opacity:1" />
    <path
       id="path660"
       d="m 6,14 h 1 v 1 H 6"
       style="fill:#2e3944;fill-opacity:1" />
    <path
       id="path662"
       d="m 7,14 h 1 v 1 H 7"
       style="fill:#2a3540;fill-opacity:1" />
    <path
       id="path664"
       d="m 8,14 h 1 v 1 H 8"
       style="fill:#2a3641;fill-opacity:1" />
    <path
       id="path666"
       d="m 9,14 h 1 v 1 H 9"
       style="fill:#2a3641;fill-opacity:1" />
    <path
       id="path668"
       d="m 10,14 h 1 v 1 h -1"
       style="fill:#2e3944;fill-opacity:1" />
    <path
       id="path670"
       d="m 11,14 h 1 v 1 h -1"
       style="fill:#2a3540;fill-opacity:1" />
    <path
       id="path672"
       d="m 12,14 h 1 v 1 h -1"
       style="fill:#2a3641;fill-opacity:1" />
    <path
       id="path674"
       d="m 13,14 h 1 v 1 h -1"
       style="fill:#2a3540;fill-opacity:1" />
    <path
       id="path676"
       d="m 14,14 0.75,0.25 v 0.5 L 14,15"
       style="fill:#2a3641;fill-opacity:1" />
    <path
       id="path678"
       d="m 14.75,14.25 0.5,-0.5 L 16,14 v 1 l -0.75,0.25 -0.5,-0.5"
       style="fill:#ffffff;fill-opacity:1" />
    <path
       id="path680"
       d="m 0,15 h 1 v 1 H 0"
       style="fill:#ffffff;fill-opacity:1" />
    <path
       id="path682"
       d="M 1,15 1.75,15.25 2,16 H 1"
       style="fill:#ffffff;fill-opacity:1" />
    <path
       id="path684"
       d="M 1.75,15.25 2.25,14.75 3,15 v 1 H 2"
       style="fill:#ffffff;fill-opacity:1" />
    <path
       id="path686"
       d="m 3,15 h 1 v 1 H 3"
       style="fill:#ffffff;fill-opacity:1" />
    <path
       id="path688"
       d="m 4,15 h 1 v 1 H 4"
       style="fill:#ffffff;fill-opacity:1" />
    <path
       id="path690"
       d="m 5,15 h 1 v 1 H 5"
       style="fill:#ffffff;fill-opacity:1" />
    <path
       id="path692"
       d="m 6,15 h 1 v 1 H 6"
       style="fill:#ffffff;fill-opacity:1" />
    <path
       id="path694"
       d="m 7,15 h 1 v 1 H 7"
       style="fill:#ffffff;fill-opacity:1" />
    <path
       id="path696"
       d="m 8,15 h 1 v 1 H 8"
       style="fill:#ffffff;fill-opacity:1" />
    <path
       id="path698"
       d="m 9,15 h 1 v 1 H 9"
       style="fill:#ffffff;fill-opacity:1" />
    <path
       id="path700"
       d="m 10,15 h 1 v 1 h -1"
       style="fill:#ffffff;fill-opacity:1" />
    <path
       id="path702"
       d="m 11,15 h 1 v 1 h -1"
       style="fill:#ffffff;fill-opacity:1" />
    <path
       id="path704"
       d="m 12,15 h 1 v 1 h -1"
       style="fill:#ffffff;fill-opacity:1" />
    <path
       id="path706"
       d="m 13,15 h 1 v 1 h -1"
       style="fill:#ffffff;fill-opacity:1" />
    <path
       id="path708"
       d="m 14,15 0.75,-0.25 0.5,0.5 L 15,16 h -1"
       style="fill:#ffffff;fill-opacity:1" />
    <path
       id="path710"
       d="M 15.25,15.25 16,15 v 1 h -1"
       style="fill:#ffffff;fill-opacity:1" />
  </g>
</svg>
