<?xml version="1.0" standalone="no"?>
<!DOCTYPE svg PUBLIC "-//W3C//DTD SVG 20010904//EN"
 "http://www.w3.org/TR/2001/REC-SVG-20010904/DTD/svg10.dtd">
<svg version="1.0" xmlns="http://www.w3.org/2000/svg"
 width="16.000000pt" height="16.000000pt" viewBox="0 0 16.000000 16.000000"
 preserveAspectRatio="xMidYMid meet">
<metadata>
Created by potrace 1.13, written by Peter Selinger 2001-2015
</metadata>
<g transform="translate(0.000000,16.000000) scale(0.100000,-0.100000)"
fill="#000000" stroke="none">
<path d="M20 120 c-23 -23 -26 -68 -7 -94 10 -14 25 -16 77 -14 l65 3 3 53 c3
58 4 57 -71 66 -39 5 -51 2 -67 -14z m100 -1 c23 -1 27 -3 13 -6 -19 -4 -21
-7 -11 -23 15 -23 -7 -70 -32 -70 -9 0 -23 12 -30 26 -12 21 -12 29 -1 46 11
18 11 20 -4 14 -9 -3 -21 -3 -27 0 -16 10 14 25 37 19 11 -2 36 -5 55 -6z
m-90 -49 c0 -10 -4 -22 -10 -25 -6 -4 -10 7 -10 25 0 18 4 29 10 25 6 -3 10
-15 10 -25z m120 -10 c0 -32 -4 -40 -17 -39 -11 0 -13 3 -5 6 6 2 12 20 12 39
0 19 2 34 5 34 3 0 5 -18 5 -40z m-95 -30 c3 -6 -4 -10 -17 -10 -18 0 -20 2
-8 10 19 12 18 12 25 0z"/>
<path d="M73 93 c-18 -7 -16 -40 2 -47 22 -8 45 4 45 24 0 14 -23 34 -33 29
-1 0 -8 -3 -14 -6z m37 -23 c0 -5 -9 -10 -20 -10 -11 0 -20 5 -20 10 0 6 9 10
20 10 11 0 20 -4 20 -10z"/>
</g>
</svg>
